{
  "source": "C:\\Users\\Peter\\Desktop\\stuff\\MIUN\\quantitative_research\\video_compression\\videos\\BVI-HD\\BVI-HD_CDVL_videos\\ORIG\\PaintingTilting_1920x1080_60fps.mp4",
  "output": "C:\\Users\\Peter\\Desktop\\stuff\\MIUN\\quantitative_research\\video_compression\\compressed_videos\\BVI-HD\\h264\\1.5\\PaintingTilting_1920x1080_60fps_h264.mp4",
  "codec": "h264",
  "ok": "Input #0, mov,mp4,m4a,3gp,3g2,mj2, from 'C:\\Users\\Peter\\Desktop\\stuff\\MIUN\\quantitative_research\\video_compression\\videos\\BVI-HD\\BVI-HD_CDVL_videos\\ORIG\\PaintingTilting_1920x1080_60fps.mp4':\n  Metadata:\n    major_brand     : isom\n    minor_version   : 512\n    compatible_brands: isomiso2avc1mp41\n    encoder         : Lavf54.28.101\n  Duration: 00:00:05.00, start: 0.000000, bitrate: 667707 kb/s\n  Stream #0:0[0x1](und): Video: h264 (High 4:4:4 Predictive) (avc1 / 0x31637661), yuv420p(progressive), 1920x1080, 667702 kb/s, 60 fps, 60 tbr, 60 tbn (default)\n    Metadata:\n      handler_name    : VideoHandler\n      vendor_id       : [0][0][0][0]\n[out#0/mp4 @ 000001b8d8e99cc0] Codec AVOption b:a (set bitrate (in bits/s)) has not been used for any stream. The most likely reason is either wrong type (e.g. a video option with no video streams) or that it is a private option of some decoder which was not actually used for any stream.\nStream mapping:\n  Stream #0:0 -> #0:0 (h264 (native) -> h264 (libx264))\nPress [q] to stop, [?] for help\n[libx264 @ 000001b8d8eabc80] using cpu capabilities: MMX2 SSE2Fast SSSE3 SSE4.2 AVX FMA3 BMI2 AVX2\n[libx264 @ 000001b8d8eabc80] profile High, level 5.0, 4:2:0, 8-bit\n[libx264 @ 000001b8d8eabc80] 264 - core 165 r3222 b35605a - H.264/MPEG-4 AVC codec - Copyleft 2003-2025 - http://www.videolan.org/x264.html - options: cabac=1 ref=5 deblock=1:0:0 analyse=0x3:0x113 me=hex subme=8 psy=1 psy_rd=1.00:0.00 mixed_ref=1 me_range=16 chroma_me=1 trellis=2 8x8dct=1 cqm=0 deadzone=21,11 fast_pskip=1 chroma_qp_offset=-2 threads=18 lookahead_threads=3 sliced_threads=0 nr=0 decimate=1 interlaced=0 bluray_compat=0 constrained_intra=0 bframes=3 b_pyramid=2 b_adapt=1 b_bias=0 direct=3 weightb=1 open_gop=0 weightp=2 keyint=250 keyint_min=25 scenecut=40 intra_refresh=0 rc_lookahead=50 rc=cbr mbtree=1 bitrate=1500 ratetol=1.0 qcomp=0.60 qpmin=0 qpmax=69 qpstep=4 vbv_maxrate=1500 vbv_bufsize=1500 nal_hrd=none filler=0 ip_ratio=1.40 aq=1:1.00\nOutput #0, mp4, to 'C:\\Users\\Peter\\Desktop\\stuff\\MIUN\\quantitative_research\\video_compression\\compressed_videos\\BVI-HD\\h264\\1.5\\PaintingTilting_1920x1080_60fps_h264.mp4':\n  Metadata:\n    major_brand     : isom\n    minor_version   : 512\n    compatible_brands: isomiso2avc1mp41\n    encoder         : Lavf62.3.100\n  Stream #0:0(und): Video: h264 (avc1 / 0x31637661), yuv420p(tv, progressive), 1920x1080, q=2-31, 1500 kb/s, 60 fps, 15360 tbn (default)\n    Metadata:\n      encoder         : Lavc62.11.100 libx264\n      handler_name    : VideoHandler\n      vendor_id       : [0][0][0][0]\n    Side data:\n      cpb: bitrate max/min/avg: 1500000/0/1500000 buffer size: 1500000 vbv_delay: N/A\nframe=    0 fps=0.0 q=0.0 size=       0KiB time=N/A bitrate=N/A speed=N/A elapsed=0:00:00.50    \nframe=    0 fps=0.0 q=0.0 size=       0KiB time=N/A bitrate=N/A speed=N/A elapsed=0:00:01.07    \nframe=   20 fps= 12 q=47.0 size=       0KiB time=00:00:00.23 bitrate=   1.6kbits/s speed=0.145x elapsed=0:00:01.61    \nframe=   56 fps= 26 q=45.0 size=       0KiB time=00:00:00.83 bitrate=   0.5kbits/s speed=0.38x elapsed=0:00:02.19    \nframe=   85 fps= 31 q=45.0 size=       0KiB time=00:00:01.33 bitrate=   0.3kbits/s speed=0.485x elapsed=0:00:02.75    \nframe=  111 fps= 33 q=44.0 size=       0KiB time=00:00:01.78 bitrate=   0.2kbits/s speed=0.529x elapsed=0:00:03.37    \nframe=  147 fps= 37 q=45.0 size=     256KiB time=00:00:02.35 bitrate= 892.6kbits/s speed=0.594x elapsed=0:00:03.95    \nframe=  177 fps= 39 q=44.0 size=     256KiB time=00:00:02.86 bitrate= 731.7kbits/s speed=0.633x elapsed=0:00:04.52    \nframe=  200 fps= 39 q=46.0 size=     256KiB time=00:00:03.28 bitrate= 638.8kbits/s speed=0.641x elapsed=0:00:05.12    \nframe=  224 fps= 39 q=46.0 size=     256KiB time=00:00:03.68 bitrate= 569.5kbits/s speed=0.643x elapsed=0:00:05.72    \nframe=  250 fps= 40 q=48.0 size=     256KiB time=00:00:04.13 bitrate= 507.5kbits/s speed=0.66x elapsed=0:00:06.26    \n[mp4 @ 000001b8d8eaa600] Starting second pass: moving the moov atom to the beginning of the file\n[out#0/mp4 @ 000001b8d8e99cc0] video:612KiB audio:0KiB subtitle:0KiB other streams:0KiB global headers:0KiB muxing overhead: 0.710337%\nframe=  300 fps= 46 q=-1.0 Lsize=     617KiB time=00:00:04.96 bitrate=1017.4kbits/s speed=0.762x elapsed=0:00:06.52    \n[libx264 @ 000001b8d8eabc80] frame I:2     Avg QP:43.15  size: 95802\n[libx264 @ 000001b8d8eabc80] frame P:76    Avg QP:43.07  size:  4543\n[libx264 @ 000001b8d8eabc80] frame B:222   Avg QP:48.96  size:   403\n[libx264 @ 000001b8d8eabc80] consecutive B-frames:  1.3%  0.0%  0.0% 98.7%\n[libx264 @ 000001b8d8eabc80] mb I  I16..4:  1.2% 87.2% 11.6%\n[libx264 @ 000001b8d8eabc80] mb P  I16..4:  0.1%  0.4%  0.0%  P16..4: 14.6%  1.3%  2.7%  0.0%  0.0%    skip:80.8%\n[libx264 @ 000001b8d8eabc80] mb B  I16..4:  0.0%  0.0%  0.0%  B16..8:  4.6%  0.1%  0.0%  direct: 0.0%  skip:95.3%  L0:29.6% L1:70.0% BI: 0.4%\n[libx264 @ 000001b8d8eabc80] 8x8 transform intra:86.6% inter:85.7%\n[libx264 @ 000001b8d8eabc80] direct mvs  spatial:95.5% temporal:4.5%\n[libx264 @ 000001b8d8eabc80] coded y,uvDC,uvAC intra: 81.9% 80.7% 42.6% inter: 0.7% 1.5% 0.0%\n[libx264 @ 000001b8d8eabc80] i16 v,h,dc,p: 61% 16%  9% 14%\n[libx264 @ 000001b8d8eabc80] i8 v,h,dc,ddl,ddr,vr,hd,vl,hu: 12%  5%  6% 10% 12% 15% 11% 15% 14%\n[libx264 @ 000001b8d8eabc80] i4 v,h,dc,ddl,ddr,vr,hd,vl,hu: 10%  4%  3% 11% 14% 17% 12% 15% 15%\n[libx264 @ 000001b8d8eabc80] i8c dc,h,v,p: 55% 14% 18% 13%\n[libx264 @ 000001b8d8eabc80] Weighted P-Frames: Y:2.6% UV:0.0%\n[libx264 @ 000001b8d8eabc80] ref P L0: 81.7% 15.1%  2.2%  0.4%  0.5%  0.0%\n[libx264 @ 000001b8d8eabc80] ref B L0: 99.5%  0.3%  0.1%  0.1%\n[libx264 @ 000001b8d8eabc80] ref B L1: 99.8%  0.2%\n[libx264 @ 000001b8d8eabc80] kb/s:1002.25\n",
  "seconds": 6.8430116176605225,
  "probe_out": {}
}